<svg width="1032" height="1032" viewBox="0 0 1032 1032" fill="none" xmlns="http://www.w3.org/2000/svg">
<g filter="url(#filter0_d_630_88)">
<rect width="1024" height="1024" transform="translate(4)" fill="black"/>
<path d="M330.622 103.518V158.317H238.029V413H172.941V158.317H79.9287V103.518H330.622ZM570.607 278.625V413H509.509V273.796C509.509 261.478 507.409 251.54 503.21 243.981C497.751 233.343 487.393 228.024 472.136 228.024C456.319 228.024 444.281 233.343 436.022 243.981C427.904 254.479 423.845 269.527 423.845 289.123V413H364.216V104.567H423.845V213.957C432.523 200.66 442.531 191.421 453.869 186.242C465.347 180.923 477.385 178.264 489.982 178.264C504.12 178.264 516.927 180.713 528.405 185.612C540.023 190.511 549.541 198 556.96 208.078C563.259 216.617 567.108 225.435 568.508 234.533C569.908 243.492 570.607 258.189 570.607 278.625ZM822.561 345.812C821.021 359.39 813.952 373.177 801.354 387.175C781.758 409.431 754.323 420.559 719.05 420.559C689.935 420.559 664.25 411.18 641.994 392.424C619.738 373.667 608.61 343.153 608.61 300.881C608.61 261.268 618.618 230.894 638.635 209.758C658.791 188.622 684.896 178.054 716.95 178.054C735.987 178.054 753.133 181.623 768.391 188.762C783.648 195.9 796.245 207.168 806.184 222.565C815.142 236.143 820.951 251.89 823.61 269.807C825.15 280.305 825.78 295.422 825.5 315.158H668.869C669.709 338.114 676.918 354.211 690.495 363.449C698.754 369.188 708.692 372.058 720.31 372.058C732.627 372.058 742.635 368.558 750.334 361.56C754.533 357.78 758.243 352.531 761.462 345.812H822.561ZM763.352 275.686C762.372 259.868 757.543 247.901 748.864 239.782C740.326 231.524 729.688 227.395 716.95 227.395C703.093 227.395 692.315 231.734 684.616 240.412C677.058 249.09 672.299 260.848 670.339 275.686H763.352ZM229.421 741.131C224.382 730.073 214.514 724.544 199.816 724.544C182.74 724.544 171.262 730.073 165.383 741.131C162.163 747.43 160.554 756.808 160.554 769.266V907H99.875V678.562H158.034V711.946C165.453 700.049 172.451 691.58 179.03 686.541C190.648 677.583 205.695 673.104 224.172 673.104C241.669 673.104 255.806 676.953 266.584 684.651C275.262 691.79 281.841 700.958 286.32 712.156C294.159 698.719 303.887 688.851 315.505 682.552C327.823 676.253 341.54 673.104 356.657 673.104C366.735 673.104 376.674 675.063 386.472 678.982C396.27 682.902 405.158 689.76 413.137 699.559C419.576 707.537 423.915 717.335 426.154 728.953C427.554 736.652 428.254 747.92 428.254 762.757L427.834 907H366.525V761.287C366.525 752.609 365.126 745.47 362.326 739.871C357.007 729.233 347.209 723.914 332.932 723.914C316.415 723.914 305.007 730.773 298.708 744.49C295.489 751.769 293.879 760.517 293.879 770.735V907H233.62V770.735C233.62 757.158 232.22 747.29 229.421 741.131ZM674.328 707.117C693.645 731.333 703.303 759.957 703.303 792.991C703.303 826.585 693.645 855.35 674.328 879.285C655.012 903.081 625.687 914.979 586.354 914.979C547.022 914.979 517.697 903.081 498.381 879.285C479.064 855.35 469.406 826.585 469.406 792.991C469.406 759.957 479.064 731.333 498.381 707.117C517.697 682.902 547.022 670.794 586.354 670.794C625.687 670.794 655.012 682.902 674.328 707.117ZM586.145 721.395C568.648 721.395 555.14 727.623 545.622 740.081C536.244 752.399 531.555 770.035 531.555 792.991C531.555 815.947 536.244 833.654 545.622 846.111C555.14 858.569 568.648 864.798 586.145 864.798C603.641 864.798 617.079 858.569 626.457 846.111C635.835 833.654 640.524 815.947 640.524 792.991C640.524 770.035 635.835 752.399 626.457 740.081C617.079 727.623 603.641 721.395 586.145 721.395ZM904.025 688.641C921.942 700.118 932.23 719.855 934.89 747.85H875.051C874.211 740.151 872.041 734.062 868.542 729.583C861.963 721.465 850.765 717.405 834.948 717.405C821.931 717.405 812.622 719.435 807.023 723.494C801.564 727.553 798.835 732.312 798.835 737.771C798.835 744.63 801.774 749.599 807.653 752.679C813.532 755.898 834.318 761.427 870.012 769.266C893.807 774.865 911.654 783.333 923.552 794.671C935.31 806.149 941.188 820.496 941.188 837.713C941.188 860.389 932.72 878.935 915.783 893.353C898.986 907.63 872.951 914.769 837.678 914.769C801.704 914.769 775.109 907.21 757.893 892.093C740.816 876.836 732.277 857.449 732.277 833.934H792.956C794.216 844.572 796.945 852.13 801.145 856.609C808.563 864.588 822.281 868.577 842.297 868.577C854.055 868.577 863.363 866.827 870.222 863.328C877.22 859.829 880.72 854.58 880.72 847.581C880.72 840.862 877.92 835.753 872.321 832.254C866.722 828.755 845.936 822.736 809.963 814.197C784.068 807.758 765.801 799.71 755.163 790.052C744.525 780.534 739.206 766.816 739.206 748.899C739.206 727.763 747.465 709.637 763.981 694.52C780.638 679.262 804.014 671.634 834.108 671.634C862.663 671.634 885.969 677.303 904.025 688.641Z" fill="white"/>
</g>
<defs>
<filter id="filter0_d_630_88" x="0" y="0" width="1032" height="1032" filterUnits="userSpaceOnUse" color-interpolation-filters="sRGB">
<feFlood flood-opacity="0" result="BackgroundImageFix"/>
<feColorMatrix in="SourceAlpha" type="matrix" values="0 0 0 0 0 0 0 0 0 0 0 0 0 0 0 0 0 0 127 0" result="hardAlpha"/>
<feOffset dy="4"/>
<feGaussianBlur stdDeviation="2"/>
<feComposite in2="hardAlpha" operator="out"/>
<feColorMatrix type="matrix" values="0 0 0 0 0 0 0 0 0 0 0 0 0 0 0 0 0 0 0.25 0"/>
<feBlend mode="normal" in2="BackgroundImageFix" result="effect1_dropShadow_630_88"/>
<feBlend mode="normal" in="SourceGraphic" in2="effect1_dropShadow_630_88" result="shape"/>
</filter>
</defs>
</svg>
